# xmcd
#
# Track frame offsets:
#	150
#	18734
#	34086
#	52196
#
# Disc length: 937 seconds
#
# Revision: 0
# Processed by: cddbd v1.5.2PL0 Copyright (c) Steve Scherf et al.
# Submitted via: EasyCDDAExtractor 11.0.0.1
#
DISCID=3203a704
DTITLE=ΜΑΡΙΟ - ΣΕ ΘΕΛΩ
DYEAR=1999
DGENRE=ΛΑΪΚΑ
TTITLE0=Μάριος_01 Σε θέλω Radio
TTITLE1=Μάριος_02 Μαρία Μαρία
TTITLE2=Μάριος_03 Σε θέλω Spanish
TTITLE3=Μάριος_04 Σε θέλω Instrumental
EXTD=
EXTT0=
EXTT1=
EXTT2=
EXTT3=
PLAYORDER=
